#!OML:ASF H:\Not Pregnant\Project 1\Capture day 1\Session 1\non-pregnant.ASF
:FULLY-SPECIFIED
:DEGREES
334
root 12.3577 15.7408 15.8076 199.052 -71.4815 -185.777
lowerback -4.46321 0.636543 -2.41785
upperback -7.1233 0.513509 -1.6044
thorax -4.88596 0.199817 -0.297927
lowerneck 0.0137976 -3.84326 -27.7322
upperneck 0.964311 -7.74487 39.8799
head 3.35998 -4.52013 20.0496
rclavicle -1.99654e-014 -7.95139e-015
rhumerus -38.319 -8.88346 -45.2565
rradius 83.5185
rwrist -18.058
rhand -10.3636 -21.634
rfingers 7.12502
rthumb 15.6335 -51.0223
lclavicle -1.99654e-014 -7.95139e-015
lhumerus -47.1394 -22.1889 86.3451
lradius 115.152
lwrist 53.1876
lhand -18.4686 -5.95641
lfingers 7.12502
lthumb 7.81805 23.879
rfemur -27.3707 -14.8591 14.3041
rtibia 44.8799
rfoot -20.7844 -11.8064
rtoes -28.1984
lfemur -32.6348 27.6399 -28.4683
ltibia 35.4743
lfoot -17.2346 3.14617
ltoes -15.6452
335
root 12.3934 15.7156 15.7344 201.042 -70.1567 -187.893
lowerback -4.25168 0.42739 -3.23558
upperback -7.12509 0.212883 -1.83449
thorax -5.01394 0.0804288 -0.0810044
lowerneck -0.278034 -3.68263 -27.6245
upperneck 1.02345 -7.44209 39.7919
head 3.29761 -4.34124 19.9916
rclavicle -6.11263e-015 -3.97569e-015
rhumerus -38.3054 -9.04704 -45.5939
rradius 86.8984
rwrist -17.6287
rhand -10.46 -21.3115
rfingers 7.12502
rthumb 15.5406 -50.7071
lclavicle -6.11263e-015 -3.97569e-015
lhumerus -48.1307 -22.8365 87.6205
lradius 115.415
lwrist 53.1292
lhand -18.024 -5.74756
lfingers 7.12502
lthumb 8.24717 24.0715
rfemur -27.6755 -15.0455 13.7779
rtibia 44.8375
rfoot -21.6879 -11.5743
rtoes -27.6653
lfemur -32.5887 27.9719 -29.0995
ltibia 35.4801
lfoot -16.7313 3.71612
ltoes -16.4091
336
root 12.4298 15.6954 15.6618 202.612 -68.8539 -189.609
lowerback -4.00226 0.210129 -3.9478
upperback -7.13516 -0.107451 -2.05646
thorax -5.16674 -0.0531373 0.0866106
lowerneck -0.579643 -3.52459 -27.524
upperneck 1.12235 -7.15144 39.6932
head 3.25273 -4.1666 19.9284
rclavicle 1.61761e-014 2.98177e-014
rhumerus -38.2853 -9.25609 -46.015
rradius 90.2376
rwrist -17.1281
rhand -10.4331 -21.0263
rfingers 7.12502
rthumb 15.5665 -50.4198
lclavicle 1.61761e-014 2.98177e-014
lhumerus -49.1059 -23.3643 88.949
lradius 115.589
lwrist 52.9361
lhand -17.6819 -5.50998
lfingers 7.12502
lthumb 8.57736 24.2958
rfemur -27.9503 -15.0557 13.2334
rtibia 44.8307
rfoot -22.4174 -11.2507
rtoes -27.3706
lfemur -32.4645 28.2052 -29.6284
ltibia 35.427
lfoot -16.2659 4.44763
ltoes -17.6332
337
root 12.467 15.6802 15.5904 203.698 -67.576 -190.849
lowerback -3.71927 -0.00957746 -4.516
upperback -7.1538 -0.437527 -2.2411
thorax -5.34273 -0.196394 0.214418
lowerneck -0.896606 -3.37689 -27.4603
upperneck 1.26769 -6.88413 39.5867
head 3.23438 -4.0014 19.8694
rclavicle 3.45388e-015 -3.89618e-014
rhumerus -38.269 -9.49171 -46.5115
rradius 93.5495
rwrist -16.6608
rhand -10.2912 -20.7419
rfingers 7.12502
rthumb 15.7032 -50.1247
lclavicle 3.45388e-015 -3.89618e-014
lhumerus -50.042 -23.7368 90.3217
lradius 115.655
lwrist 52.6059
lhand -17.5334 -5.33747
lfingers 7.12502
lthumb 8.72067 24.4624
rfemur -28.2164 -14.8816 12.7297
rtibia 44.8686
rfoot -22.9617 -10.7946
rtoes -27.3769
lfemur -32.2871 28.3529 -29.9935
ltibia 35.3612
lfoot -15.8335 5.33971
ltoes -19.2339
338
root 12.5054 15.6688 15.5208 204.291 -66.3235 -191.587
lowerback -3.40694 -0.216625 -4.90352
upperback -7.18417 -0.755083 -2.38308
thorax -5.5446 -0.339656 0.28805
lowerneck -1.21776 -3.24064 -27.4083
upperneck 1.45513 -6.6433 39.4677
head 3.23869 -3.84805 19.8048
rclavicle 3.85891e-014 1.51076e-014
rhumerus -38.2688 -9.74128 -47.0762
rradius 96.8282
rwrist -16.3707
rhand -10.1178 -20.4514
rfingers 7.12502
rthumb 15.8702 -49.821
lclavicle 3.85891e-014 1.51076e-014
lhumerus -50.914 -23.9821 91.7208
lradius 115.595
lwrist 52.1495
lhand -17.4878 -5.20497
lfingers 7.12502
lthumb 8.76466 24.593
rfemur -28.503 -14.534 12.3247
rtibia 44.956
rfoot -23.3401 -10.1789
rtoes -27.5608
lfemur -32.102 28.4114 -30.1524
ltibia 35.3483
lfoot -15.4125 6.40651
ltoes -21.1629
339
root 12.5448 15.6606 15.4531 204.349 -65.1054 -191.75
lowerback -3.08835 -0.376816 -5.03554
upperback -7.22991 -1.01094 -2.49662
thorax -5.76746 -0.463218 0.250596
lowerneck -1.48745 -3.12589 -27.3298
upperneck 1.64296 -6.45152 39.3474
head 3.25171 -3.7246 19.7286
rclavicle 1.03741e-014 2.66371e-014
rhumerus -38.3768 -10.0435 -47.6911
rradius 100.086
rwrist -16.3134
rhand -9.96924 -20.1445
rfingers 7.12502
rthumb 16.0133 -49.5027
lclavicle 1.03741e-014 2.66371e-014
lhumerus -51.7034 -24.185 93.1218
lradius 115.393
lwrist 51.5802
lhand -17.4426 -5.08891
lfingers 7.12502
lthumb 8.80823 24.7073
rfemur -28.8348 -14.03 12.1108
rtibia 45.0861
rfoot -23.5836 -9.41441
rtoes -27.8346
lfemur -31.9581 28.3768 -30.0383
ltibia 35.4528
lfoot -14.9777 7.62803
ltoes -23.2393
340
root 12.5848 15.6542 15.388 203.908 -63.9052 -191.345
lowerback -2.79464 -0.481211 -4.88836
upperback -7.28611 -1.1862 -2.57636
thorax -5.99158 -0.559865 0.0931898
lowerneck -1.70725 -3.03669 -27.2228
upperneck 1.81719 -6.31165 39.2279
head 3.27141 -3.63274 19.6409
rclavicle -6.86304e-014 -1.98785e-015
rhumerus -38.5907 -10.3781 -48.358
rradius 103.315
rwrist -16.5495
rhand -9.95047 -19.8461
rfingers 7.12502
rthumb 16.0313 -49.2028
lclavicle -6.86304e-014 -1.98785e-015
lhumerus -52.3868 -24.3482 94.4984
lradius 115.048
lwrist 50.9144
lhand -17.3609 -4.98074
lfingers 7.12502
lthumb 8.88705 24.8121
rfemur -29.235 -13.39 12.1389
rtibia 45.2424
rfoot -23.7366 -8.49941
rtoes -28.0018
lfemur -31.8977 28.2407 -29.6271
ltibia 35.723
lfoot -14.509 9.0026
ltoes -25.3954
341
root 12.624 15.6486 15.3255 203.096 -62.6976 -190.504
lowerback -2.54651 -0.527918 -4.4919
upperback -7.34383 -1.27409 -2.63442
thorax -6.19719 -0.626488 -0.181829
lowerneck -1.87398 -2.97435 -27.095
upperneck 1.96753 -6.22541 39.1198
head 3.29603 -3.57439 19.5499
rclavicle 4.42047e-014 3.85642e-014
rhumerus -38.9052 -10.7257 -49.0791
rradius 106.498
rwrist -17.0614
rhand -10.1005 -19.5743
rfingers 7.12502
rthumb 15.8869 -48.9426
lclavicle 4.42047e-014 3.85642e-014
lhumerus -52.9658 -24.4781 95.8249
lradius 114.584
lwrist 50.1865
lhand -17.1983 -4.84025
lfingers 7.12502
lthumb 9.04396 24.9459
rfemur -29.6779 -12.6599 12.3915
rtibia 45.3927
rfoot -23.8432 -7.48575
rtoes -28.0299
lfemur -31.904 27.98 -28.9353
ltibia 36.1693
lfoot -14.0479 10.4686
ltoes -27.3229
342
root 12.6615 15.6433 15.2652 202.055 -61.4409 -189.389
lowerback -2.35613 -0.519383 -3.91471
upperback -7.3875 -1.27602 -2.68494
thorax -6.3599 -0.661565 -0.552686
lowerneck -2.00386 -2.93601 -26.936
upperneck 2.09529 -6.18514 39.0205
head 3.32537 -3.54405 19.4519
rclavicle 5.15846e-014 1.78906e-014
rhumerus -39.2869 -11.073 -49.8645
rradius 109.6
rwrist -17.783
rhand -10.4131 -19.3406
rfingers 7.12502
rthumb 15.5858 -48.7326
lclavicle 5.15846e-014 1.78906e-014
lhumerus -53.4393 -24.5813 97.0754
lradius 114.036
lwrist 49.4178
lhand -16.995 -4.63393
lfingers 7.12502
lthumb 9.24016 25.1436
rfemur -30.1178 -11.8565 12.8164
rtibia 45.4976
rfoot -23.929 -6.44948
rtoes -27.9127
lfemur -31.9251 27.577 -28.0017
ltibia 36.759
lfoot -13.6111 11.9928
ltoes -28.9053
343
root 12.6958 15.6395 15.2077 200.928 -60.1158 -188.175
lowerback -2.20391 -0.469298 -3.21925
upperback -7.41474 -1.21305 -2.73774
thorax -6.48594 -0.67245 -0.995121
lowerneck -2.09879 -2.91472 -26.782
upperneck 2.20654 -6.18056 38.9411
head 3.3591 -3.53677 19.3646
rclavicle 4.96962e-014 -6.36111e-015
rhumerus -39.6922 -11.3744 -50.7119
rradius 112.585
rwrist -18.6195
rhand -10.8663 -19.1499
rfingers 7.12502
rthumb 15.1493 -48.5754
lclavicle 4.96962e-014 -6.36111e-015
lhumerus -53.8223 -24.6082 98.2469
lradius 113.432
lwrist 48.6169
lhand -16.7647 -4.35245
lfingers 7.12502
lthumb 9.46239 25.4151
rfemur -30.4846 -11.027 13.3353
rtibia 45.5099
rfoot -24.0142 -5.4263
rtoes -27.6801
lfemur -31.8687 26.9674 -26.871
ltibia 37.4236
lfoot -13.2637 13.5391
ltoes -29.8892
344
root 12.726 15.6399 15.152 199.833 -58.6987 -187.017
lowerback -2.07109 -0.389783 -2.48768
upperback -7.42703 -1.10615 -2.80828
thorax -6.58526 -0.665379 -1.47923
lowerneck -2.16607 -2.89848 -26.6365
upperneck 2.32041 -6.19731 38.8858
head 3.39799 -3.54459 19.2937
rclavicle -1.30875e-013 -6.75868e-015
rhumerus -40.1068 -11.5986 -51.6354
rradius 115.436
rwrist -19.4632
rhand -11.4413 -18.9787
rfingers 7.12502
rthumb 14.5953 -48.4452
lclavicle -1.30875e-013 -6.75868e-015
lhumerus -54.1376 -24.5398 99.3333
lradius 112.805
lwrist 47.7936
lhand -16.5156 -3.98578
lfingers 7.12502
lthumb 9.70276 25.7707
rfemur -30.723 -10.1666 13.8654
rtibia 45.3862
rfoot -24.0977 -4.45186
rtoes -27.3413
lfemur -31.653 26.1243 -25.6064
ltibia 38.0819
lfoot -13.0667 15.0662
ltoes -30.0999
345
root 12.7519 15.6472 15.0963 198.815 -57.1834 -185.98
lowerback -1.96269 -0.289339 -1.80468
upperback -7.41591 -0.966892 -2.88064
thorax -6.64292 -0.639845 -1.94095
lowerneck -2.2022 -2.88338 -26.5143
upperneck 2.43511 -6.22585 38.8453
head 3.43701 -3.56228 19.2379
rclavicle -1.12313e-014 4.25399e-014
rhumerus -40.4828 -11.7304 -52.6065
rradius 118.122
rwrist -20.194
rhand -12.0598 -18.8043
rfingers 7.12502
rthumb 13.9993 -48.3129
lclavicle -1.12313e-014 4.25399e-014
lhumerus -54.3779 -24.3643 100.354
lradius 112.17
lwrist 46.9432
lhand -16.3113 -3.5938
lfingers 7.12502
lthumb 9.89987 26.1534
rfemur -30.7942 -9.26328 14.3638
rtibia 45.089
rfoot -24.1619 -3.51471
rtoes -26.8461
lfemur -31.2275 25.0631 -24.255
ltibia 38.6619
lfoot -13.0317 16.5453
ltoes -29.5523
346
root 12.7733 15.6623 15.0404 197.891 -55.575 -185.083
lowerback -1.87185 -0.188733 -1.19475
upperback -7.3907 -0.82479 -2.93855
thorax -6.67201 -0.608001 -2.34811
lowerneck -2.23689 -2.85764 -26.4373
upperneck 2.58359 -6.24608 38.8113
head 3.48311 -3.57584 19.2011
rclavicle -1.44119e-015 -1.43125e-014
rhumerus -40.761 -11.7189 -53.6312
rradius 120.607
rwrist -20.7253
rhand -12.6939 -18.5918
rfingers 7.12502
rthumb 13.3882 -48.1416
lclavicle -1.44119e-015 -1.43125e-014
lhumerus -54.5482 -24.0354 101.309
lradius 111.543
lwrist 46.0727
lhand -16.1256 -3.21848
lfingers 7.12502
lthumb 10.0789 26.5201
rfemur -30.6952 -8.32603 14.8139
rtibia 44.5997
rfoot -24.1813 -2.59861
rtoes -26.2333
lfemur -30.5962 23.8451 -22.8761
ltibia 39.1199
lfoot -13.1171 17.9479
ltoes -28.4296
347
root 12.7907 15.6852 14.9827 197.043 -53.8881 -184.288
lowerback -1.82277 -0.0741893 -0.660939
upperback -7.35558 -0.662107 -2.98173
thorax -6.66229 -0.560615 -2.69904
lowerneck -2.2308 -2.82586 -26.3868
upperneck 2.74689 -6.27106 38.7848
head 3.52775 -3.59588 19.1772
rclavicle -1.09083e-013 -3.4191e-014
rhumerus -40.9733 -11.6024 -54.6758
rradius 122.889
rwrist -20.981
rhand -13.3089 -18.3448
rfingers 7.12502
rthumb 12.7954 -47.9327
lclavicle -1.09083e-013 -3.4191e-014
lhumerus -54.6677 -23.6287 102.226
lradius 110.932
lwrist 45.2159
lhand -15.9606 -2.90038
lfingers 7.12502
lthumb 10.2381 26.8305
rfemur -30.4419 -7.34299 15.2356
rtibia 43.9174
rfoot -24.136 -1.69749
rtoes -25.5339
lfemur -29.7962 22.5336 -21.4978
ltibia 39.4465
lfoot -13.2646 19.2522
ltoes -26.8762
